<svg version="1.1" id="Layer_1" xmlns="http://www.w3.org/2000/svg" xmlns:xlink="http://www.w3.org/1999/xlink" x="0px" y="0px"
	 width="100%" viewBox="0 0 648 85" enable-background="new 0 0 648 85" xml:space="preserve">
<path fill="#000000" opacity="1.000000" stroke="none" 
	d="
M494.000000,86.000000 
	C329.666656,86.000000 165.333328,86.000000 1.000000,86.000000 
	C1.000000,79.593864 1.000000,73.265976 1.273992,66.281006 
	C7.363418,59.915569 13.701194,54.638489 18.861101,48.388912 
	C25.206545,40.703426 32.643875,37.920925 42.425812,38.879276 
	C51.235355,39.742363 52.942955,40.851402 52.989754,49.549313 
	C53.015976,54.422512 52.994476,59.295971 52.994476,64.169312 
	C53.600037,64.293411 54.205597,64.417519 54.811157,64.541618 
	C60.231079,58.473560 69.120544,54.447910 66.765053,43.718319 
	C65.855576,39.575562 64.869766,35.171646 62.691772,31.644316 
	C58.423073,24.731010 50.507355,26.362316 42.377708,25.515289 
	C50.919918,16.650160 58.459957,8.825080 66.000000,1.000000 
	C76.354225,1.000000 86.708458,1.000000 97.428261,1.324416 
	C96.462280,3.332249 95.267128,5.149057 93.774734,6.675202 
	C88.307480,12.266136 82.841118,17.865465 77.171944,23.248396 
	C74.162636,26.105772 72.880516,29.307619 72.959305,33.427296 
	C73.124725,42.076332 72.985725,50.730873 73.025444,59.382908 
	C73.032684,60.961784 73.294998,62.539490 73.457832,64.317131 
	C79.823486,61.305466 86.496315,53.480423 86.948669,48.876774 
	C87.768837,40.529835 90.368385,37.537415 98.602966,38.162464 
	C108.665337,38.926254 112.537811,31.628321 118.926147,24.955198 
	C111.840904,23.984131 105.923370,22.287861 100.679298,26.160015 
	C96.000923,29.614468 91.878998,33.822514 87.028595,38.126526 
	C87.028595,32.412758 86.933052,26.818087 87.055191,21.228174 
	C87.179832,15.524220 88.525871,14.144362 94.231911,14.058361 
	C102.882332,13.927982 111.542976,14.189275 120.183533,13.864720 
	C122.814705,13.765888 125.901390,12.912265 127.887566,11.303320 
	C131.602631,8.293858 134.665695,4.479498 138.000000,1.000001 
	C148.354233,1.000000 158.708450,1.000000 169.428360,1.324455 
	C163.047318,8.748406 156.438950,15.987222 149.492249,22.885324 
	C146.287186,26.067963 144.830933,29.457626 144.945312,33.948273 
	C145.157181,42.266537 144.981750,50.594200 145.022186,58.917683 
	C145.030640,60.657005 145.275528,62.395176 145.411469,64.133881 
	C145.839264,64.349907 146.267059,64.565933 146.694855,64.781952 
	C162.761139,48.730022 178.827423,32.678089 195.114609,16.405447 
	C196.133667,17.920063 196.633133,18.316980 196.636963,18.718611 
	C196.730331,28.528690 196.959274,38.346203 196.598648,48.141571 
	C196.549942,49.465160 193.613373,51.505833 191.802170,51.771755 
	C187.888351,52.346382 183.804459,52.321468 179.848373,51.939220 
	C170.035583,50.991081 166.375015,58.604809 160.337982,64.852844 
	C162.589783,65.384979 163.802597,65.916054 165.017685,65.921272 
	C178.501495,65.979202 191.985779,65.924820 205.469681,65.972725 
	C209.589523,65.987358 211.014145,63.834354 210.992188,60.010338 
	C210.935791,50.188828 210.942078,40.366352 211.012085,30.544895 
	C211.086441,20.112267 212.298355,9.435094 204.000000,1.000000 
	C220.020889,1.000000 236.041794,1.000000 252.428391,1.324476 
	C249.867737,5.238684 246.941391,8.828416 243.115738,13.521304 
	C252.322723,13.521304 260.013000,13.606859 267.697021,13.427172 
	C268.823029,13.400841 270.090851,12.284367 270.999176,11.377842 
	C274.398895,7.984811 277.676575,4.469482 281.000000,1.000002 
	C284.361298,1.000000 287.722565,1.000000 291.438904,1.324443 
	C285.700989,8.427830 279.784393,15.377989 273.440216,21.913019 
	C270.298523,25.149210 268.838715,28.511969 268.944641,32.986053 
	C269.149200,41.626579 268.980591,50.275513 269.021301,58.920704 
	C269.029480,60.653458 269.281403,62.385059 269.530487,65.477287 
	C276.073975,59.256100 282.510956,54.913349 282.077820,45.668941 
	C281.696991,37.540794 281.933258,29.378357 282.060516,21.233618 
	C282.149414,15.543254 283.505859,14.561070 289.201843,13.926491 
	C292.192169,13.593338 295.618469,13.004813 297.883942,11.271611 
	C301.663330,8.380198 304.668762,4.477149 308.000000,1.000004 
	C313.354919,1.000000 318.709869,1.000000 324.429260,1.324378 
	C318.050476,8.745657 311.444855,15.981081 304.502716,22.877733 
	C301.302582,26.056883 299.829834,29.438669 299.944733,33.930882 
	C300.157379,42.245388 299.981689,50.569359 300.021667,58.889133 
	C300.030029,60.631390 300.271393,62.372524 300.524292,65.659683 
	C306.022980,59.585522 313.003662,56.697529 313.918365,48.853397 
	C314.889740,40.523514 317.357727,37.550373 325.623901,38.159199 
	C335.670715,38.899174 339.554413,31.624216 345.318207,25.560696 
	C330.250458,19.224781 323.237732,30.265610 314.729370,38.590343 
	C314.020233,32.563599 313.945404,27.130072 314.039825,21.699486 
	C314.149078,15.416086 315.435455,14.084320 321.760040,14.040815 
	C334.738586,13.951539 347.812134,13.031270 360.670380,14.274905 
	C373.141052,15.481059 381.286499,10.347555 388.000000,1.000000 
	C389.388885,1.000000 390.777802,1.000000 392.480499,1.324633 
	C389.889191,5.170932 386.984100,8.692598 383.046997,13.465287 
	C389.273102,13.818698 394.204620,14.098624 400.219238,14.440029 
	C398.619537,16.443766 397.819183,17.617418 396.851471,18.631315 
	C389.040009,26.815401 381.199768,34.972000 373.362854,43.131763 
	C368.708984,47.977345 367.270996,57.829666 370.518005,64.618248 
	C376.840363,58.505894 384.987549,53.813656 383.017670,43.022129 
	C382.900665,42.381264 383.047516,41.694035 383.055817,41.028187 
	C383.096283,37.777992 384.723755,36.106133 387.987885,36.071213 
	C390.818207,36.040936 393.688293,35.709549 396.471497,36.060707 
	C404.256348,37.042927 410.460815,34.700790 415.213959,28.334141 
	C416.381866,26.769760 418.253052,25.730396 419.800903,24.449671 
	C420.251892,24.654758 420.702881,24.859846 421.153870,25.064934 
	C421.153870,38.074326 421.153870,51.083717 421.153870,64.093109 
	C421.641998,64.213531 422.130096,64.333961 422.618225,64.454384 
	C428.078735,58.702835 436.670868,55.222969 435.110687,44.526649 
	C434.444794,39.961391 434.943298,35.217216 435.011505,30.555792 
	C435.164337,20.105862 436.200836,9.462203 428.000000,1.000000 
	C440.354218,1.000000 452.708466,1.000000 465.427704,1.324206 
	C464.461395,3.332155 463.265991,5.148648 461.774445,6.675901 
	C456.310577,12.270659 450.695251,17.717676 445.241028,23.321621 
	C441.452698,27.214014 440.917664,31.669785 443.673248,36.610287 
	C448.597168,31.297182 455.597870,27.784454 455.361694,18.989952 
	C455.325104,17.626102 457.169586,15.199644 458.425903,14.995118 
	C462.939270,14.260358 467.573456,14.267752 472.161957,13.994643 
	C472.281250,14.551144 472.400543,15.107643 472.519836,15.664144 
	C471.311554,16.983299 470.148773,18.347775 468.887512,19.614164 
	C461.255219,27.277611 453.576874,34.895267 445.962250,42.576157 
	C441.607483,46.968811 440.302948,58.403522 443.529449,64.390739 
	C450.018951,59.028309 456.678375,53.992138 455.046509,44.014717 
	C454.283539,39.349785 456.473450,35.866055 459.790924,32.591621 
	C470.325134,22.193972 480.615417,11.549227 491.000000,0.999991 
	C495.024536,1.000000 499.049103,1.000000 503.433838,1.324475 
	C497.516846,8.259407 491.255005,14.884633 484.933472,21.452442 
	C484.424225,21.981552 483.160309,22.596148 482.830170,22.359055 
	C479.826447,20.202078 478.786316,23.160282 477.101715,24.404099 
	C469.803894,29.792410 466.515106,36.832294 467.945709,45.980110 
	C468.301056,48.252216 467.998749,50.627163 467.998749,52.954838 
	C467.998749,56.673443 467.998779,60.392048 467.998779,64.605186 
	C477.331055,59.961834 481.977356,52.884041 481.998260,44.347172 
	C482.005615,41.354462 482.271484,38.332882 481.953888,35.374443 
	C481.021851,26.691956 487.468567,23.151575 492.450592,18.555286 
	C492.967072,18.683828 493.483521,18.812368 494.000000,18.940910 
	C494.000000,41.293941 494.000000,63.646969 494.000000,86.000000 
M353.998779,64.954750 
	C357.657928,61.269432 361.317078,57.584118 364.976257,53.898804 
	C364.698792,53.410141 364.421356,52.921474 364.143921,52.432812 
	C362.406158,52.290565 360.669006,52.034294 358.930573,52.025452 
	C350.598328,51.983089 342.265564,51.978260 333.933289,52.017651 
	C327.049347,52.050190 318.568634,58.343094 316.009064,65.312042 
	C328.459381,65.312042 340.871826,65.312042 353.998779,64.954750 
M113.482750,65.999924 
	C115.477448,65.998703 117.472221,66.007835 119.466835,65.994423 
	C127.284813,65.941849 134.267670,60.651978 137.191437,52.002934 
	C127.690681,52.002934 118.371994,52.674191 109.193344,51.827412 
	C98.512833,50.842087 94.348824,58.553734 88.546524,64.356705 
	C88.656303,64.904449 88.766090,65.452194 88.875870,65.999939 
	C96.746918,65.999939 104.617958,65.999939 113.482750,65.999924 
z"/>
<path fill="#000000" opacity="1.000000" stroke="none" 
	d="
M649.000000,55.000008 
	C649.000000,65.308708 649.000000,75.617416 649.000000,86.000000 
	C598.312439,86.000000 547.624878,86.000000 496.571350,85.675385 
	C497.656830,83.546783 498.967102,81.603668 500.583923,79.962601 
	C508.069763,72.364449 515.757629,64.961105 523.098206,57.227032 
	C524.909607,55.318508 526.442566,52.539478 526.808838,49.975651 
	C528.073364,41.123775 531.128967,37.628365 540.097229,38.138611 
	C549.920471,38.697502 553.640991,31.471682 559.229370,25.617254 
	C543.842407,18.763424 537.122559,31.411739 527.691650,38.502773 
	C527.018677,32.965858 526.949829,27.875732 527.035522,22.788212 
	C527.150757,15.951655 528.907349,14.126465 535.649841,14.040635 
	C544.148499,13.932451 552.656738,14.187918 561.144836,13.865689 
	C563.783020,13.765541 566.879700,12.928361 568.869019,11.319158 
	C572.592224,8.307418 575.659729,4.485104 579.000000,1.000000 
	C588.354248,1.000000 597.708435,1.000000 607.433472,1.330428 
	C606.397034,3.709357 605.226562,5.982144 603.538086,7.764252 
	C598.502014,13.079680 592.959290,17.945358 588.238892,23.515886 
	C586.076538,26.067720 584.406860,29.796885 584.199036,33.098202 
	C583.645813,41.886318 583.983276,50.732166 584.028564,59.554741 
	C584.036560,61.109596 584.344238,62.662910 584.628662,65.274231 
	C586.699280,63.478008 587.970154,62.494221 589.103760,61.371727 
	C594.190063,56.335152 599.564331,51.539265 604.207886,46.119514 
	C608.966614,40.565266 614.428406,38.585835 621.701721,38.858467 
	C635.460205,39.374184 635.994812,39.539196 635.999390,53.331665 
	C636.000549,56.958569 635.999573,60.585472 635.999573,65.350571 
	C641.299255,61.131119 645.149658,58.065567 649.000000,55.000008 
M549.499084,65.999329 
	C553.153503,65.998146 556.807922,66.012482 560.462280,65.992416 
	C567.212952,65.955345 575.697327,59.496574 578.141541,52.003483 
	C568.660583,52.003483 559.342163,52.674137 550.163574,51.828125 
	C539.483826,50.843750 535.341797,58.566452 529.551147,64.369865 
	C529.657776,64.913025 529.764404,65.456177 529.871033,65.999329 
	C536.080627,65.999329 542.290161,65.999329 549.499084,65.999329 
z"/>
<path fill="#021B21" opacity="1.000000" stroke="none" 
	d="
M578.531372,1.000000 
	C575.659729,4.485104 572.592224,8.307418 568.869019,11.319158 
	C566.879700,12.928361 563.783020,13.765541 561.144836,13.865689 
	C552.656738,14.187918 544.148499,13.932451 535.649841,14.040635 
	C528.907349,14.126465 527.150757,15.951655 527.035522,22.788212 
	C526.949829,27.875732 527.018677,32.965858 527.691650,38.502773 
	C537.122559,31.411739 543.842407,18.763424 559.229370,25.617254 
	C553.640991,31.471682 549.920471,38.697502 540.097229,38.138611 
	C531.128967,37.628365 528.073364,41.123775 526.808838,49.975651 
	C526.442566,52.539478 524.909607,55.318508 523.098206,57.227032 
	C515.757629,64.961105 508.069763,72.364449 500.583923,79.962601 
	C498.967102,81.603668 497.656830,83.546783 496.102661,85.675385 
	C495.555542,86.000000 495.111115,86.000000 494.333313,86.000000 
	C494.000000,63.646969 494.000000,41.293941 494.000000,18.940910 
	C493.483521,18.812368 492.967072,18.683828 492.450592,18.555286 
	C487.468567,23.151575 481.021851,26.691956 481.953888,35.374443 
	C482.271484,38.332882 482.005615,41.354462 481.998260,44.347172 
	C481.977356,52.884041 477.331055,59.961834 467.998779,64.605186 
	C467.998779,60.392048 467.998749,56.673443 467.998749,52.954838 
	C467.998749,50.627163 468.301056,48.252216 467.945709,45.980110 
	C466.515106,36.832294 469.803894,29.792410 477.101715,24.404099 
	C478.786316,23.160282 479.826447,20.202078 482.830170,22.359055 
	C483.160309,22.596148 484.424225,21.981552 484.933472,21.452442 
	C491.255005,14.884633 497.516846,8.259407 503.897034,1.324475 
	C504.750000,1.000000 505.500000,1.000000 506.624664,1.468657 
	C506.999329,23.692358 506.999329,45.447399 506.999329,68.022293 
	C512.930664,64.338722 513.866150,63.032497 513.936462,58.119045 
	C514.055298,49.809093 513.625671,41.471081 514.195007,33.197735 
	C514.422791,29.886818 515.997620,26.124689 518.163147,23.600872 
	C523.128113,17.814386 528.932617,12.756705 534.179504,7.198525 
	C535.810974,5.470273 536.746094,3.084682 538.000000,1.000006 
	C551.354248,1.000000 564.708435,1.000000 578.531372,1.000000 
z"/>
<path fill="#021B21" opacity="1.000000" stroke="none" 
	d="
M203.531342,1.000000 
	C212.298355,9.435094 211.086441,20.112267 211.012085,30.544895 
	C210.942078,40.366352 210.935791,50.188828 210.992188,60.010338 
	C211.014145,63.834354 209.589523,65.987358 205.469681,65.972725 
	C191.985779,65.924820 178.501495,65.979202 165.017685,65.921272 
	C163.802597,65.916054 162.589783,65.384979 160.337982,64.852844 
	C166.375015,58.604809 170.035583,50.991081 179.848373,51.939220 
	C183.804459,52.321468 187.888351,52.346382 191.802170,51.771755 
	C193.613373,51.505833 196.549942,49.465160 196.598648,48.141571 
	C196.959274,38.346203 196.730331,28.528690 196.636963,18.718611 
	C196.633133,18.316980 196.133667,17.920063 195.114609,16.405447 
	C178.827423,32.678089 162.761139,48.730022 146.694855,64.781952 
	C146.267059,64.565933 145.839264,64.349907 145.411469,64.133881 
	C145.275528,62.395176 145.030640,60.657005 145.022186,58.917683 
	C144.981750,50.594200 145.157181,42.266537 144.945312,33.948273 
	C144.830933,29.457626 146.287186,26.067963 149.492249,22.885324 
	C156.438950,15.987222 163.047318,8.748406 169.897018,1.324455 
	C181.020889,1.000000 192.041794,1.000000 203.531342,1.000000 
M181.452148,13.996933 
	C175.959900,14.022337 170.466507,13.986991 164.975784,14.092336 
	C160.568832,14.176888 158.176575,16.534182 158.099136,20.949503 
	C157.991150,27.106062 158.023270,33.265133 158.002930,39.423153 
	C157.993362,42.319614 158.001297,45.216129 158.001297,47.756931 
	C169.377945,36.393135 180.400131,25.383413 191.799484,13.996928 
	C188.882004,13.996928 185.653976,13.996928 181.452148,13.996933 
z"/>
<path fill="#021B21" opacity="1.000000" stroke="none" 
	d="
M427.531342,1.000000 
	C436.200836,9.462203 435.164337,20.105862 435.011505,30.555792 
	C434.943298,35.217216 434.444794,39.961391 435.110687,44.526649 
	C436.670868,55.222969 428.078735,58.702835 422.618225,64.454384 
	C422.130096,64.333961 421.641998,64.213531 421.153870,64.093109 
	C421.153870,51.083717 421.153870,38.074326 421.153870,25.064934 
	C420.702881,24.859846 420.251892,24.654758 419.800903,24.449671 
	C418.253052,25.730396 416.381866,26.769760 415.213959,28.334141 
	C410.460815,34.700790 404.256348,37.042927 396.471497,36.060707 
	C393.688293,35.709549 390.818207,36.040936 387.987885,36.071213 
	C384.723755,36.106133 383.096283,37.777992 383.055817,41.028187 
	C383.047516,41.694035 382.900665,42.381264 383.017670,43.022129 
	C384.987549,53.813656 376.840363,58.505894 370.518005,64.618248 
	C367.270996,57.829666 368.708984,47.977345 373.362854,43.131763 
	C381.199768,34.972000 389.040009,26.815401 396.851471,18.631315 
	C397.819183,17.617418 398.619537,16.443766 400.219238,14.440029 
	C394.204620,14.098624 389.273102,13.818698 383.046997,13.465287 
	C386.984100,8.692598 389.889191,5.170932 392.897156,1.324633 
	C404.354218,1.000000 415.708466,1.000000 427.531342,1.000000 
M401.119354,18.374432 
	C400.248230,19.471739 399.377136,20.569044 397.700409,22.681185 
	C404.297241,22.681185 409.682922,22.821707 415.051392,22.579805 
	C416.351166,22.521236 417.813934,21.420696 418.819580,20.416563 
	C421.290253,17.949554 420.658966,15.000425 417.295502,14.497968 
	C411.762939,13.671471 405.934662,12.643765 401.119354,18.374432 
z"/>
<path fill="#021B21" opacity="1.000000" stroke="none" 
	d="
M65.531342,1.000000 
	C58.459957,8.825080 50.919918,16.650160 42.377708,25.515289 
	C50.507355,26.362316 58.423073,24.731010 62.691772,31.644316 
	C64.869766,35.171646 65.855576,39.575562 66.765053,43.718319 
	C69.120544,54.447910 60.231079,58.473560 54.811157,64.541618 
	C54.205597,64.417519 53.600037,64.293411 52.994476,64.169312 
	C52.994476,59.295971 53.015976,54.422512 52.989754,49.549313 
	C52.942955,40.851402 51.235355,39.742363 42.425812,38.879276 
	C32.643875,37.920925 25.206545,40.703426 18.861101,48.388912 
	C13.701194,54.638489 7.363418,59.915569 1.273992,65.811958 
	C1.000000,52.645771 1.000000,39.291542 1.325302,25.367748 
	C6.349682,20.457180 11.193913,16.260464 15.699795,11.727424 
	C19.028387,8.378770 21.915947,4.591728 25.000000,1.000000 
	C38.354229,1.000000 51.708454,1.000000 65.531342,1.000000 
M14.004945,42.063122 
	C14.157279,43.778427 14.309613,45.493729 14.422228,46.761787 
	C25.242590,35.900974 35.888699,25.215071 46.474091,14.590105 
	C46.156044,14.517298 45.092503,14.070357 44.025646,14.062309 
	C36.559155,14.005993 29.089367,13.921358 21.625889,14.085187 
	C16.130142,14.205823 14.212318,16.188013 14.076395,21.759514 
	C13.918601,28.227459 14.015964,34.701630 14.004945,42.063122 
z"/>
<path fill="#021A21" opacity="1.000000" stroke="none" 
	d="
M649.000000,54.531429 
	C645.149658,58.065567 641.299255,61.131119 635.999573,65.350571 
	C635.999573,60.585472 636.000549,56.958569 635.999390,53.331665 
	C635.994812,39.539196 635.460205,39.374184 621.701721,38.858467 
	C614.428406,38.585835 608.966614,40.565266 604.207886,46.119514 
	C599.564331,51.539265 594.190063,56.335152 589.103760,61.371727 
	C587.970154,62.494221 586.699280,63.478008 584.628662,65.274231 
	C584.344238,62.662910 584.036560,61.109596 584.028564,59.554741 
	C583.983276,50.732166 583.645813,41.886318 584.199036,33.098202 
	C584.406860,29.796885 586.076538,26.067720 588.238892,23.515886 
	C592.959290,17.945358 598.502014,13.079680 603.538086,7.764252 
	C605.226562,5.982144 606.397034,3.709357 607.902161,1.330428 
	C620.833313,1.000000 633.666748,0.981365 646.499817,1.042901 
	C647.334717,1.046904 648.166687,1.666675 648.675659,2.603368 
	C640.921082,10.163774 633.490723,17.120819 626.060425,24.077866 
	C626.216553,24.694178 626.372681,25.310490 626.528809,25.926802 
	C635.280640,24.834080 642.692200,27.407461 649.000000,33.000000 
	C649.000000,40.020947 649.000000,47.041897 649.000000,54.531429 
M597.010437,23.719423 
	C597.010437,31.561783 597.010437,39.404140 597.010437,47.009548 
	C608.191101,35.829937 618.861328,25.160709 629.599243,14.423818 
	C628.648987,14.326264 627.088867,14.039858 625.526672,14.027763 
	C619.050415,13.977625 612.572754,13.950628 606.096985,14.028619 
	C598.890869,14.115406 597.487061,15.527540 597.010437,23.719423 
z"/>
<path fill="#021B21" opacity="1.000000" stroke="none" 
	d="
M387.531342,1.000000 
	C381.286499,10.347555 373.141052,15.481059 360.670380,14.274905 
	C347.812134,13.031270 334.738586,13.951539 321.760040,14.040815 
	C315.435455,14.084320 314.149078,15.416086 314.039825,21.699486 
	C313.945404,27.130072 314.020233,32.563599 314.729370,38.590343 
	C323.237732,30.265610 330.250458,19.224781 345.318207,25.560696 
	C339.554413,31.624216 335.670715,38.899174 325.623901,38.159199 
	C317.357727,37.550373 314.889740,40.523514 313.918365,48.853397 
	C313.003662,56.697529 306.022980,59.585522 300.524292,65.659683 
	C300.271393,62.372524 300.030029,60.631390 300.021667,58.889133 
	C299.981689,50.569359 300.157379,42.245388 299.944733,33.930882 
	C299.829834,29.438669 301.302582,26.056883 304.502716,22.877733 
	C311.444855,15.981081 318.050476,8.745657 324.896851,1.324378 
	C345.687561,1.000000 366.375122,1.000000 387.531342,1.000000 
z"/>
<path fill="#021B21" opacity="1.000000" stroke="none" 
	d="
M137.531342,1.000001 
	C134.665695,4.479498 131.602631,8.293858 127.887566,11.303320 
	C125.901390,12.912265 122.814705,13.765888 120.183533,13.864720 
	C111.542976,14.189275 102.882332,13.927982 94.231911,14.058361 
	C88.525871,14.144362 87.179832,15.524220 87.055191,21.228174 
	C86.933052,26.818087 87.028595,32.412758 87.028595,38.126526 
	C91.878998,33.822514 96.000923,29.614468 100.679298,26.160015 
	C105.923370,22.287861 111.840904,23.984131 118.926147,24.955198 
	C112.537811,31.628321 108.665337,38.926254 98.602966,38.162464 
	C90.368385,37.537415 87.768837,40.529835 86.948669,48.876774 
	C86.496315,53.480423 79.823486,61.305466 73.457832,64.317131 
	C73.294998,62.539490 73.032684,60.961784 73.025444,59.382908 
	C72.985725,50.730873 73.124725,42.076332 72.959305,33.427296 
	C72.880516,29.307619 74.162636,26.105772 77.171944,23.248396 
	C82.841118,17.865465 88.307480,12.266136 93.774734,6.675202 
	C95.267128,5.149057 96.462280,3.332249 97.896919,1.324416 
	C111.020897,1.000000 124.041786,1.000000 137.531342,1.000001 
z"/>
<path fill="#021A21" opacity="1.000000" stroke="none" 
	d="
M490.531342,0.999991 
	C480.615417,11.549227 470.325134,22.193972 459.790924,32.591621 
	C456.473450,35.866055 454.283539,39.349785 455.046509,44.014717 
	C456.678375,53.992138 450.018951,59.028309 443.529449,64.390739 
	C440.302948,58.403522 441.607483,46.968811 445.962250,42.576157 
	C453.576874,34.895267 461.255219,27.277611 468.887512,19.614164 
	C470.148773,18.347775 471.311554,16.983299 472.519836,15.664144 
	C472.400543,15.107643 472.281250,14.551144 472.161957,13.994643 
	C467.573456,14.267752 462.939270,14.260358 458.425903,14.995118 
	C457.169586,15.199644 455.325104,17.626102 455.361694,18.989952 
	C455.597870,27.784454 448.597168,31.297182 443.673248,36.610287 
	C440.917664,31.669785 441.452698,27.214014 445.241028,23.321621 
	C450.695251,17.717676 456.310577,12.270659 461.774445,6.675901 
	C463.265991,5.148648 464.461395,3.332155 465.896362,1.324206 
	C474.020905,1.000000 482.041809,1.000000 490.531342,0.999991 
z"/>
<path fill="#000000" opacity="1.000000" stroke="none" 
	d="
M537.531372,1.000006 
	C536.746094,3.084682 535.810974,5.470273 534.179504,7.198525 
	C528.932617,12.756705 523.128113,17.814386 518.163147,23.600872 
	C515.997620,26.124689 514.422791,29.886818 514.195007,33.197735 
	C513.625671,41.471081 514.055298,49.809093 513.936462,58.119045 
	C513.866150,63.032497 512.930664,64.338722 506.999329,68.022293 
	C506.999329,45.447399 506.999329,23.692358 506.999664,1.468657 
	C517.020874,1.000000 527.041809,1.000000 537.531372,1.000006 
z"/>
<path fill="#021B21" opacity="1.000000" stroke="none" 
	d="
M307.533142,1.000004 
	C304.668762,4.477149 301.663330,8.380198 297.883942,11.271611 
	C295.618469,13.004813 292.192169,13.593338 289.201843,13.926491 
	C283.505859,14.561070 282.149414,15.543254 282.060516,21.233618 
	C281.933258,29.378357 281.696991,37.540794 282.077820,45.668941 
	C282.510956,54.913349 276.073975,59.256100 269.530487,65.477287 
	C269.281403,62.385059 269.029480,60.653458 269.021301,58.920704 
	C268.980591,50.275513 269.149200,41.626579 268.944641,32.986053 
	C268.838715,28.511969 270.298523,25.149210 273.440216,21.913019 
	C279.784393,15.377989 285.700989,8.427830 291.896973,1.324443 
	C297.022095,1.000000 302.044189,1.000000 307.533142,1.000004 
z"/>
<path fill="#021B21" opacity="1.000000" stroke="none" 
	d="
M280.531342,1.000002 
	C277.676575,4.469482 274.398895,7.984811 270.999176,11.377842 
	C270.090851,12.284367 268.823029,13.400841 267.697021,13.427172 
	C260.013000,13.606859 252.322723,13.521304 243.115738,13.521304 
	C246.941391,8.828416 249.867737,5.238684 252.897049,1.324476 
	C262.020905,1.000000 271.041779,1.000000 280.531342,1.000002 
z"/>
<path fill="#000000" opacity="1.000000" stroke="none" 
	d="
M649.000000,32.531342 
	C642.692200,27.407461 635.280640,24.834080 626.528809,25.926802 
	C626.372681,25.310490 626.216553,24.694178 626.060425,24.077866 
	C633.490723,17.120819 640.921082,10.163774 648.675659,3.103364 
	C649.000000,12.687562 649.000000,22.375124 649.000000,32.531342 
z"/>
<path fill="#000000" opacity="1.000000" stroke="none" 
	d="
M24.531309,1.000000 
	C21.915947,4.591728 19.028387,8.378770 15.699795,11.727424 
	C11.193913,16.260464 6.349682,20.457180 1.325302,24.899090 
	C1.000000,17.073662 1.000000,9.147325 1.000000,1.000000 
	C8.686132,1.000000 16.374374,1.000000 24.531309,1.000000 
z"/>
<path fill="#021B21" opacity="1.000000" stroke="none" 
	d="
M353.641541,65.133392 
	C340.871826,65.312042 328.459381,65.312042 316.009064,65.312042 
	C318.568634,58.343094 327.049347,52.050190 333.933289,52.017651 
	C342.265564,51.978260 350.598328,51.983089 358.930573,52.025452 
	C360.669006,52.034294 362.406158,52.290565 364.143921,52.432812 
	C364.421356,52.921474 364.698792,53.410141 364.976257,53.898804 
	C361.317078,57.584118 357.657928,61.269432 353.641541,65.133392 
z"/>
<path fill="#021B21" opacity="1.000000" stroke="none" 
	d="
M112.985870,65.999931 
	C104.617958,65.999939 96.746918,65.999939 88.875870,65.999939 
	C88.766090,65.452194 88.656303,64.904449 88.546524,64.356705 
	C94.348824,58.553734 98.512833,50.842087 109.193344,51.827412 
	C118.371994,52.674191 127.690681,52.002934 137.191437,52.002934 
	C134.267670,60.651978 127.284813,65.941849 119.466835,65.994423 
	C117.472221,66.007835 115.477448,65.998703 112.985870,65.999931 
z"/>
<path fill="#021B21" opacity="1.000000" stroke="none" 
	d="
M548.999390,65.999329 
	C542.290161,65.999329 536.080627,65.999329 529.871033,65.999329 
	C529.764404,65.456177 529.657776,64.913025 529.551147,64.369865 
	C535.341797,58.566452 539.483826,50.843750 550.163574,51.828125 
	C559.342163,52.674137 568.660583,52.003483 578.141541,52.003483 
	C575.697327,59.496574 567.212952,65.955345 560.462280,65.992416 
	C556.807922,66.012482 553.153503,65.998146 548.999390,65.999329 
z"/>
<path fill="#000000" opacity="1.000000" stroke="none" 
	d="
M181.939056,13.996931 
	C185.653976,13.996928 188.882004,13.996928 191.799484,13.996928 
	C180.400131,25.383413 169.377945,36.393135 158.001297,47.756931 
	C158.001297,45.216129 157.993362,42.319614 158.002930,39.423153 
	C158.023270,33.265133 157.991150,27.106062 158.099136,20.949503 
	C158.176575,16.534182 160.568832,14.176888 164.975784,14.092336 
	C170.466507,13.986991 175.959900,14.022337 181.939056,13.996931 
z"/>
<path fill="#000000" opacity="1.000000" stroke="none" 
	d="
M401.364075,18.131504 
	C405.934662,12.643765 411.762939,13.671471 417.295502,14.497968 
	C420.658966,15.000425 421.290253,17.949554 418.819580,20.416563 
	C417.813934,21.420696 416.351166,22.521236 415.051392,22.579805 
	C409.682922,22.821707 404.297241,22.681185 397.700409,22.681185 
	C399.377136,20.569044 400.248230,19.471739 401.364075,18.131504 
z"/>
<path fill="#000000" opacity="1.000000" stroke="none" 
	d="
M14.003761,41.618111 
	C14.015964,34.701630 13.918601,28.227459 14.076395,21.759514 
	C14.212318,16.188013 16.130142,14.205823 21.625889,14.085187 
	C29.089367,13.921358 36.559155,14.005993 44.025646,14.062309 
	C45.092503,14.070357 46.156044,14.517298 46.474091,14.590105 
	C35.888699,25.215071 25.242590,35.900974 14.422228,46.761787 
	C14.309613,45.493729 14.157279,43.778427 14.003761,41.618111 
z"/>
<path fill="#000000" opacity="1.000000" stroke="none" 
	d="
M597.015381,23.255497 
	C597.487061,15.527540 598.890869,14.115406 606.096985,14.028619 
	C612.572754,13.950628 619.050415,13.977625 625.526672,14.027763 
	C627.088867,14.039858 628.648987,14.326264 629.599243,14.423818 
	C618.861328,25.160709 608.191101,35.829937 597.010437,47.009548 
	C597.010437,39.404140 597.010437,31.561783 597.015381,23.255497 
z"/>
</svg>